<?xml version="1.0"?>
<svg xmlns="http://www.w3.org/2000/svg" xmlns:xlink="http://www.w3.org/1999/xlink" version="1.1" id="Capa_1" x="0px" y="0px" viewBox="0 0 192.689 192.689" style="enable-background:new 0 0 192.689 192.689;" xml:space="preserve" width="512px" height="512px"><g><g>
	<g id="Double_Chevron_Right">
		<path d="M188.527,87.755l-83.009-84.2c-4.692-4.74-12.319-4.74-17.011,0c-4.704,4.74-4.704,12.439,0,17.179l74.54,75.61    l-74.54,75.61c-4.704,4.74-4.704,12.439,0,17.179c4.704,4.74,12.319,4.74,17.011,0l82.997-84.2    C193.05,100.375,193.062,92.327,188.527,87.755z" data-original="#000000" class="active-path" data-old_color="#000000" fill="#FFFFFF"/>
		<path d="M104.315,87.755l-82.997-84.2c-4.704-4.74-12.319-4.74-17.011,0c-4.704,4.74-4.704,12.439,0,17.179l74.528,75.61    l-74.54,75.61c-4.704,4.74-4.704,12.439,0,17.179s12.319,4.74,17.011,0l82.997-84.2C108.838,100.375,108.85,92.327,104.315,87.755    z" data-original="#000000" class="active-path" data-old_color="#000000" fill="#FFFFFF"/>
	</g>
	<g>
	</g>
	<g>
	</g>
	<g>
	</g>
	<g>
	</g>
	<g>
	</g>
	<g>
	</g>
</g></g> </svg>
