<?xml version="1.0" encoding="iso-8859-1"?>
<!-- Generator: Adobe Illustrator 16.0.0, SVG Export Plug-In . SVG Version: 6.00 Build 0)  -->
<!DOCTYPE svg PUBLIC "-//W3C//DTD SVG 1.1//EN" "http://www.w3.org/Graphics/SVG/1.1/DTD/svg11.dtd">
<svg version="1.1" id="Capa_1" xmlns="http://www.w3.org/2000/svg" xmlns:xlink="http://www.w3.org/1999/xlink" x="0px" y="0px"
	 width="923.11px" height="923.11px" viewBox="0 0 923.11 923.11" style="enable-background:new 0 0 923.11 923.11;"
	 xml:space="preserve">
<g>
	<path d="M776.029,59.188L907.509,189.1c9.905,9.787,15.517,23.107,15.6,37.031c0.082,13.917-5.367,27.311-15.154,37.215
		L776.273,396.616c-20.379,20.625-53.62,20.823-74.245,0.444c-10.394-10.269-15.601-23.806-15.601-37.347
		c0-13.331,5.045-26.666,15.155-36.897l41.245-41.743c-19.152,3.249-42.661,8.911-68.262,18.748
		c-37.678,14.476-72.664,35.13-103.987,61.388c-32.615,27.341-61.475,61.023-86.074,100.346
		c24.6,39.322,53.459,73.005,86.074,100.346c31.323,26.259,66.31,46.912,103.987,61.389c25.601,9.836,49.109,15.498,68.262,18.748
		l-41.245-41.743c-10.109-10.232-15.155-23.567-15.155-36.898c0-13.541,5.207-27.078,15.601-37.347
		c20.625-20.379,53.866-20.18,74.245,0.445l131.682,133.271c9.786,9.905,15.236,23.298,15.154,37.215
		c-0.083,13.924-5.695,27.244-15.6,37.031L776.03,863.923c-20.625,20.379-53.865,20.18-74.245-0.445
		c-20.379-20.625-20.18-53.865,0.445-74.245l41.35-40.856c-26.898-3.403-61.944-10.493-101.124-24.98
		c-49.438-18.279-95.309-44.703-136.335-78.536c-30.254-24.948-57.836-53.931-82.495-86.629
		c-24.659,32.698-52.242,61.681-82.495,86.63c-41.025,33.832-86.895,60.256-136.335,78.535
		c-83.503,30.874-148.228,28.153-155.333,27.741C21.55,749.519,0,726.378,0,698.772c0-1.021,0.03-2.053,0.09-3.086
		c1.678-28.945,26.504-51.052,55.45-49.374c0.475,0.028,49.288,2.098,112.843-21.401c38.375-14.189,74.02-34.733,105.945-61.061
		c33.586-27.697,63.231-62.038,88.416-102.297c-25.185-40.258-54.83-74.6-88.416-102.297c-31.925-26.327-67.57-46.871-105.945-61.06
		c-63.554-23.499-112.367-21.43-112.843-21.402c-28.946,1.678-53.772-20.427-55.45-49.374C0.03,226.388,0,225.357,0,224.335
		c0-27.606,21.551-50.746,49.463-52.364c7.105-0.412,71.83-3.133,155.333,27.743c49.439,18.28,95.31,44.703,136.335,78.536
		c30.254,24.949,57.836,53.931,82.495,86.629c24.659-32.698,52.242-61.68,82.495-86.629c41.026-33.833,86.896-60.256,136.335-78.536
		c39.18-14.487,74.224-21.577,101.124-24.979l-41.35-40.857c-20.625-20.379-20.825-53.62-0.445-74.245
		C722.164,39.008,755.404,38.809,776.029,59.188z"/>
</g>
<g>
</g>
<g>
</g>
<g>
</g>
<g>
</g>
<g>
</g>
<g>
</g>
<g>
</g>
<g>
</g>
<g>
</g>
<g>
</g>
<g>
</g>
<g>
</g>
<g>
</g>
<g>
</g>
<g>
</g>
</svg>
